HIERARCHY
ROOT hip
{
	OFFSET 0.000000 0.000000 0.000000 
	CHANNELS 6 Xposition Yposition Zposition Xrotation Zrotation Yrotation
	JOINT abdomen
	{
		OFFSET 0.000000 3.402643 0.000000 
		CHANNELS 3 Xrotation Zrotation Yrotation
		JOINT chest
		{
			OFFSET 0.000000 8.438565 -0.680529 
			CHANNELS 3 Xrotation Zrotation Yrotation
			JOINT neck
			{
				OFFSET 0.000000 10.207942 -0.272212 
				CHANNELS 3 Xrotation Zrotation Yrotation
				JOINT head
				{
					OFFSET 0.000000 3.130431 0.000000 
					CHANNELS 3 Xrotation Zrotation Yrotation
					End Site
					{
						OFFSET 0.000000 3.130435 0.000000 
					}
				}
			}
			JOINT lCollar
			{
				OFFSET 3.470700 6.669187 -0.816635 
				CHANNELS 3 Yrotation Zrotation Xrotation
				JOINT lShldr
				{
					OFFSET 3.198488 0.000000 0.000000 
					CHANNELS 3 Zrotation Yrotation Xrotation
					JOINT lForeArm
					{
						OFFSET 10.139888 0.000000 0.000000 
						CHANNELS 3 Yrotation Zrotation Xrotation
						JOINT lHand
						{
							OFFSET 8.370511 0.000000 0.000000 
							CHANNELS 3 Zrotation Yrotation Xrotation
							End Site
							{
								OFFSET 4.083176 0.000000 0.000000 
							}
						}
					}
				}
			}
			JOINT rCollar
			{
				OFFSET -3.470700 6.669187 -0.816635 
				CHANNELS 3 Yrotation Zrotation Xrotation
				JOINT rShldr
				{
					OFFSET -3.198488 0.000000 0.000000 
					CHANNELS 3 Zrotation Yrotation Xrotation
					JOINT rForeArm
					{
						OFFSET -10.139888 0.000000 0.000000 
						CHANNELS 3 Yrotation Zrotation Xrotation
						JOINT rHand
						{
							OFFSET -8.370511 0.000000 0.000000 
							CHANNELS 3 Zrotation Yrotation Xrotation
							End Site
							{
								OFFSET -4.083176 0.000000 0.000000 
							}
						}
					}
				}
			}
		}
	}
	JOINT lThigh
	{
		OFFSET 5.308129 -1.633274 1.361059 
		CHANNELS 3 Xrotation Zrotation Yrotation
		JOINT lShin
		{
			OFFSET -2.041588 -20.007561 0.000000 
			CHANNELS 3 Xrotation Zrotation Yrotation
			JOINT lFoot
			{
				OFFSET 0.000000 -19.190928 -1.224953 
				CHANNELS 3 Xrotation Yrotation Zrotation
				End Site
				{
					OFFSET 0.000000 -2.449906 4.627600 
				}
			}
		}
	}
	JOINT rThigh
	{
		OFFSET -5.308129 -1.633274 1.361059 
		CHANNELS 3 Xrotation Zrotation Yrotation
		JOINT rShin
		{
			OFFSET 2.041588 -20.007561 0.000000 
			CHANNELS 3 Xrotation Zrotation Yrotation
			JOINT rFoot
			{
				OFFSET 0.000000 -19.190928 -1.224953 
				CHANNELS 3 Xrotation Yrotation Zrotation
				End Site
				{
					OFFSET 0.000000 -2.449906 4.627600 
				}
			}
		}
	}
}
MOTION
Frames: 20
Frame Time: 0.033333
0.842212 47.658939 1.652549 1.124286 0.769858 3.721154 0.000000 0.000000 0.000000 -4.814613 -0.442629 0.090889 3.995506 -0.400388 -0.195376 6.279913 -0.722656 -0.048947 -0.703058 9.421124 -3.772235 -2.210125 -2.353696 -4.577411 -0.005935 -2.739145 10.148347 0.945032 -7.017078 -3.440359 0.134955 -8.895335 -3.805028 -2.590908 -8.967009 -9.953183 -0.003943 2.326226 15.187570 -2.847467 8.957742 -3.638288 -0.634710 6.584638 5.621007 15.974692 -2.678870 9.578189 -14.531451 1.021666 -7.401176 1.462999 -11.458478 -10.924927 14.139520 3.024990 -8.292234 -13.081759 -1.144207 9.933129 
0.839986 47.665981 1.669241 1.106792 0.799084 3.730923 0.000000 0.000000 0.000000 -4.795097 -0.462074 0.092727 3.995179 -0.468749 -0.127029 6.289362 -0.585937 -0.029395 -0.660804 9.369008 -3.751420 -2.186334 -2.401140 -4.586349 -0.006601 -2.769714 10.226848 0.875665 -7.031072 -3.422393 0.124351 -8.953117 -3.785736 -2.533350 -8.901784 -10.159942 -0.004387 2.248280 15.479936 -2.785142 8.912764 -3.627252 -0.527805 6.561673 5.597690 15.825891 -2.676773 9.578011 -14.441899 0.999257 -7.389660 1.570016 -11.496907 -10.981380 14.050981 3.083325 -8.155292 -13.091078 -1.098213 9.880584 
0.837261 47.665363 1.677104 1.080037 0.838064 3.730926 0.000000 0.000000 0.000000 -4.775583 -0.488483 0.124651 4.063415 -0.537109 -0.097744 6.211417 -0.468750 -0.058672 -0.701635 9.243979 -3.730520 -2.060865 -2.380905 -4.581882 0.000804 -2.758372 10.217100 0.853674 -6.993246 -3.419700 0.116771 -9.089520 -3.777619 -2.435567 -8.870839 -10.263160 -0.001451 2.229457 15.538486 -2.724195 9.043691 -3.621470 -0.478432 6.496311 5.633459 15.761662 -2.656446 9.623652 -14.448934 0.993147 -7.415045 1.589251 -11.524208 -10.994262 14.075583 3.032547 -8.236770 -13.093953 -1.136406 9.904773 
0.829589 47.659946 1.686314 1.038297 0.799093 3.721158 0.000000 0.000000 0.000000 -4.756033 -0.468120 0.132536 4.131476 -0.517578 -0.068445 6.142969 -0.458984 -0.048905 -0.712000 9.283342 -3.711240 -2.063632 -2.360397 -4.553393 -0.000461 -2.748761 10.226384 0.785535 -6.987436 -3.421002 0.118872 -9.128438 -3.747142 -2.446737 -8.817842 -10.187942 -0.006688 2.248274 15.538484 -2.650428 8.950155 -3.616774 -0.478803 6.610991 5.678926 15.917605 -2.723459 9.585868 -14.485683 1.052201 -7.395148 1.589792 -11.478719 -10.941020 14.138523 3.024594 -8.263022 -13.137996 -1.123657 9.934194 
0.827638 47.663471 1.696223 1.009988 0.818601 3.701631 0.000000 0.000000 0.000000 -4.716992 -0.496368 0.145015 4.131369 -0.498047 -0.058676 6.181810 -0.498047 -0.019615 -0.696023 9.301231 -3.680776 -2.032932 -2.322924 -4.409458 -0.005831 -2.827374 10.031774 0.853674 -6.993246 -3.419700 0.112264 -9.127769 -3.727863 -2.437006 -8.720910 -10.108746 -0.000593 2.316802 15.168056 -2.849187 8.830529 -3.633186 -0.381307 6.580257 5.715320 15.812492 -2.704772 9.614129 -14.476269 0.991058 -7.438445 1.678218 -11.479833 -10.973804 14.083248 3.031748 -8.167951 -13.138228 -1.099925 9.902731 
0.821069 47.664478 1.697867 1.036133 0.769875 3.701624 0.000000 0.000000 0.000000 -4.736513 -0.485726 0.153818 4.112110 -0.458984 -0.097731 6.289169 -0.625000 -0.009872 -0.632427 9.326972 -3.701693 -2.086265 -2.341071 -4.514355 -0.006151 -2.777590 10.002037 0.841657 -7.121135 -3.419467 0.134435 -9.041365 -3.747145 -2.517530 -8.720152 -10.165771 0.000195 2.269707 15.470161 -2.700262 8.800367 -3.618852 -0.410293 6.623772 5.747837 15.826199 -2.725862 9.552435 -14.494164 1.029405 -7.385524 1.659346 -11.425328 -10.928949 14.019321 3.013783 -8.232944 -13.083883 -1.129527 9.897177 
0.819241 47.666737 1.705886 1.069751 0.847884 3.652810 0.000000 0.000000 0.000000 -4.736557 -0.549187 0.208863 4.092529 -0.537109 -0.078213 6.348422 -0.449218 -0.097730 -0.568669 9.254402 -3.700178 -2.004398 -2.365472 -4.555432 -0.008003 -2.796814 9.894746 0.785694 -7.153734 -3.422079 0.131850 -9.080344 -3.747143 -2.479130 -8.726686 -10.219226 -0.005921 2.248276 15.518969 -2.569571 8.769401 -3.598031 -0.341811 6.525064 5.721149 15.699111 -2.735364 9.656897 -14.457475 1.041611 -7.367549 1.638971 -11.539380 -11.007127 14.080034 3.073485 -8.066653 -13.156681 -1.121224 9.859470 
0.818510 47.666996 1.704483 1.038241 0.808883 3.672336 0.000000 0.000000 0.000000 -4.726803 -0.559828 0.200060 4.141457 -0.488281 -0.097736 6.406868 -0.517578 -0.068445 -0.585933 9.314017 -3.692104 -2.060894 -2.299151 -4.497176 -0.008265 -2.825665 9.787455 0.810635 -7.240300 -3.426330 0.176905 -9.014622 -3.735952 -2.511366 -8.753794 -10.095515 -0.001246 2.279120 15.441274 -2.744434 8.895756 -3.620448 -0.371448 6.598718 5.745890 15.766867 -2.745063 9.651311 -14.453958 1.009233 -7.373609 1.678042 -11.479173 -10.983644 14.032415 3.064076 -8.080680 -13.139489 -1.081348 9.868761 
0.813138 47.666611 1.696304 1.046529 0.779620 3.701626 0.000000 0.000000 0.000000 -4.726786 -0.540383 0.198222 4.112377 -0.410155 -0.146551 6.523862 -0.830078 -0.029435 -0.568675 9.302935 -3.680905 -2.092459 -2.363079 -4.561937 -0.004110 -2.775895 9.845505 0.795519 -7.153152 -3.423295 0.177169 -9.034082 -3.726304 -2.480616 -8.781095 -10.000818 -0.007854 2.279107 15.607158 -2.950767 8.716595 -3.645143 -0.410263 6.622291 5.767422 15.802724 -2.743933 9.541664 -14.467502 1.056443 -7.381751 1.637869 -11.437541 -10.919594 14.022027 3.044244 -8.219943 -13.093463 -1.122079 9.890387 
0.805053 47.664852 1.681879 1.062658 0.730910 3.681963 0.000000 0.000000 0.000000 -4.716981 -0.515424 0.254717 4.112177 -0.332030 -0.146539 6.552734 -1.074219 -0.000183 -0.574610 9.362027 -3.682485 -2.236237 -2.394937 -4.574965 -0.006513 -2.756654 9.865011 1.020848 -7.149610 -3.441651 0.188843 -9.005474 -3.726302 -2.452592 -8.825671 -10.001902 -0.005522 2.279114 15.548612 -2.953278 8.755544 -3.646791 -0.498513 6.708948 5.783667 15.902614 -2.744697 9.554809 -14.471496 1.013644 -7.404486 1.609560 -11.371893 -10.903060 14.031690 3.044219 -8.209546 -13.095673 -1.095348 9.838758 
0.801124 47.664097 1.672771 1.126515 0.662699 3.672194 0.000000 0.000000 0.000000 -4.785317 -0.486258 0.251960 4.141264 -0.312499 -0.117239 6.552562 -1.005859 0.009764 -0.617225 9.336411 -3.730611 -2.253440 -2.334674 -4.508383 -0.001730 -2.739151 10.236137 1.104718 -7.252321 -3.444182 0.250624 -8.990590 -3.776019 -2.414228 -8.864393 -9.946686 -0.008495 2.316786 15.363210 -2.838073 8.811670 -3.630904 -0.595678 6.783751 5.800126 15.960844 -2.745934 9.521637 -14.562250 1.045083 -7.411248 1.521622 -11.264985 -10.831872 13.992602 3.015047 -8.332268 -13.040766 -1.140527 9.857629 
0.797760 47.667881 1.662593 1.168079 0.701682 3.672197 0.000000 0.000000 0.000000 -4.814654 -0.550637 0.297283 4.160555 -0.390625 -0.058659 6.533736 -0.781250 -0.039192 -0.671519 9.183973 -3.759461 -2.090607 -2.328140 -4.426583 -0.005127 -2.819504 10.276092 0.860878 -7.276520 -3.423095 0.273912 -9.012126 -3.804935 -2.339722 -8.914094 -9.857704 -0.003953 2.366482 15.168440 -2.837704 8.781972 -3.639369 -0.634835 6.701830 5.764817 15.911407 -2.714962 9.645620 -14.457094 1.001258 -7.443767 1.473753 -11.335699 -10.845868 14.017973 3.023054 -8.251437 -13.081930 -1.129194 9.831700 
0.799034 47.670647 1.659159 1.121003 0.730926 3.662434 0.000000 0.000000 0.000000 -4.824466 -0.591365 0.281514 4.229034 -0.380859 -0.078188 6.610538 -0.927734 0.048822 -0.677090 9.076897 -3.767542 -1.939057 -2.367198 -4.216218 -0.001006 -2.976729 10.189292 0.998458 -7.268338 -3.440401 0.328200 -9.055001 -3.816067 -2.217587 -8.859599 -9.819903 -0.000330 2.378462 15.246886 -2.745203 8.729110 -3.623682 -0.566713 6.672845 5.752541 15.840247 -2.714044 9.601345 -14.405953 1.056578 -7.413408 1.521386 -11.330638 -10.876844 14.006656 3.022414 -8.213144 -13.061651 -1.126990 9.832349 
0.799353 47.670139 1.654803 1.119998 0.711419 3.681962 0.000000 0.000000 0.000000 -4.863524 -0.582561 0.270873 4.209718 -0.478515 -0.087969 6.836490 -0.810547 -0.039197 -0.638203 8.957975 -3.815799 -1.809734 -2.514928 -4.235549 -0.006390 -3.057072 10.190310 0.926724 -7.223695 -3.430090 0.385980 -9.000587 -3.844960 -2.257605 -8.852690 -9.756675 -0.005168 2.406736 15.178586 -2.583154 8.827228 -3.601614 -0.586308 6.718508 5.765426 15.883132 -2.744681 9.565816 -14.445015 1.015056 -7.370252 1.521704 -11.303356 -10.844922 13.983295 3.005410 -8.294953 -13.034676 -1.112446 9.872041 
0.797961 47.666611 1.642202 1.086604 0.652968 3.652663 0.000000 0.000000 0.000000 -4.892776 -0.541834 0.286641 4.277547 -0.595703 -0.019632 6.827024 -0.624999 -0.078227 -0.523958 9.009557 -3.836726 -1.909007 -2.738993 -4.262401 -0.003037 -3.105130 10.092798 0.534900 -7.246807 -3.390581 0.390631 -9.030601 -3.864239 -2.198296 -8.765392 -9.799652 -0.000653 2.381046 15.481450 -2.575539 9.043178 -3.598087 -0.615115 6.760618 5.808704 15.997611 -2.715765 9.561883 -14.509999 1.021971 -7.422775 1.503339 -11.247997 -10.809908 14.026547 2.993234 -8.302732 -13.020189 -1.124634 9.843483 
0.799545 47.669270 1.634289 1.059678 0.691959 3.642901 0.000000 0.000000 0.000000 -4.912340 -0.604375 0.351408 4.267234 -0.673828 0.029295 7.012798 -0.576171 -0.107515 -0.529709 9.166928 -3.857548 -2.238539 -2.891775 -4.494864 -0.002022 -2.976729 10.169788 0.607609 -6.958793 -3.409158 0.379927 -9.118484 -3.896241 -2.104478 -8.720306 -9.825999 -0.000672 2.362227 15.608295 -2.805024 9.067961 -3.636436 -0.585981 6.709527 5.754939 15.951052 -2.715257 9.643092 -14.455954 1.056757 -7.403202 1.521598 -11.312450 -10.855562 14.024624 3.031632 -8.210848 -13.025136 -1.141544 9.824098 
0.801772 47.680954 1.624731 1.038562 0.672489 3.613605 0.000000 0.000000 0.000000 -4.902595 -0.623820 0.353246 4.130066 -0.664062 0.068355 7.393312 -0.615234 -0.068460 -0.508888 9.185117 -3.857567 -2.287091 -2.986241 -4.547016 -0.006903 -2.919074 10.277063 0.650855 -6.858406 -3.413473 0.418100 -9.013206 -3.885037 -2.211175 -8.716247 -9.772375 -0.002854 2.390458 15.471691 -2.786852 9.118366 -3.625629 -0.508058 6.700227 5.753613 15.813483 -2.656418 9.678635 -14.333555 1.043462 -7.441267 1.629824 -11.355097 -10.981274 13.860066 3.159138 -8.091366 -12.936489 -1.070217 9.727769 
0.808276 47.674179 1.609627 1.017513 0.643229 3.642896 0.000000 0.000000 0.000000 -4.922141 -0.634461 0.344443 4.120992 -0.595703 0.009765 7.480898 -0.839844 -0.029437 -0.563601 9.100670 -3.857514 -2.121925 -3.046187 -4.425747 -0.001242 -2.988079 10.336080 0.666042 -7.131469 -3.407351 0.518525 -8.833969 -3.881946 -2.416144 -8.815521 -9.523810 -0.004399 2.440124 15.423303 -2.480879 9.087836 -3.595223 -0.566413 6.750737 5.767125 15.952670 -2.706062 9.644259 -14.452038 1.028709 -7.418242 1.590684 -11.374067 -11.030911 13.971958 3.229442 -8.027886 -12.969956 -1.075516 9.703973 
0.817620 47.683605 1.597307 0.893109 0.672423 3.701489 0.000000 0.000000 0.000000 -4.834309 -0.683992 0.339316 4.208984 -0.595703 0.000000 7.343750 -0.820313 -0.000140 -0.729069 9.031343 -3.767484 -2.017573 -2.973274 -4.277797 -0.003690 -3.084191 9.965510 0.845765 -7.189370 -3.419975 0.442560 -8.788666 -3.822634 -2.414817 -8.747466 -9.547708 -0.003983 2.440124 15.413547 -2.297680 8.805162 -3.576191 -0.430117 6.690114 5.752218 15.862527 -2.646796 9.618235 -14.369750 0.981613 -7.408711 1.767220 -11.406353 -11.079209 13.856682 3.219123 -8.114927 -12.874779 -1.111294 9.716011 
0.816246 47.689270 1.584969 0.815786 0.672370 3.769844 0.000000 0.000000 0.000000 -4.814837 -0.717754 0.293462 4.238889 -0.712890 -0.048946 7.159102 -0.527343 -0.097742 -0.796872 8.918075 -3.756234 -1.889753 -2.945946 -4.333824 -0.004076 -3.055346 10.053273 0.550985 -7.020858 -3.392512 0.317060 -8.975657 -3.795267 -2.212183 -8.608663 -9.488568 0.001085 2.445356 15.735904 -2.559905 8.593640 -3.599945 -0.371610 6.716244 5.753320 15.817253 -2.667358 9.570060 -14.276048 1.000212 -7.375436 1.874692 -11.367364 -11.079576 13.736326 3.188486 -8.204078 -12.802700 -1.104808 9.728711 
